<?xml version="1.0" encoding="UTF-8"?>
<svg width="256" height="256" viewBox="0 0 256 256" xmlns="http://www.w3.org/2000/svg" aria-hidden="true">
  <defs>
    <linearGradient id="g1" x1="0" x2="1" y1="0" y2="1">
      <stop offset="0%" stop-color="#00e5ff"/>
      <stop offset="100%" stop-color="#0066cc"/>
    </linearGradient>
  </defs>
  <rect width="100%" height="100%" rx="20" fill="#0b1b25"/>
  <!-- shore -->
  <path d="M20,180 C68,140 120,160 200,140 L236,140 L236,220 L20,220 Z" fill="#f4e7c2" opacity="0.95"/>
  <!-- water waves -->
  <g transform="translate(0,22)">
    <path d="M10,160 C40,120 80,140 120,120 C160,100 200,140 246,120" fill="none" stroke="url(#g1)" stroke-width="10" stroke-linecap="round" stroke-linejoin="round" opacity="0.95"/>
    <path d="M10,186 C40,146 80,166 120,146 C160,126 200,166 246,146" fill="none" stroke="rgba(255,255,255,0.18)" stroke-width="6" stroke-linecap="round" stroke-linejoin="round"/>
    <circle cx="60" cy="80" r="18" fill="#fff" opacity="0.08"/>
  </g>
  <!-- small sonar ping icon -->
  <g transform="translate(28,30)">
    <circle cx="160" cy="86" r="8" fill="#00e5ff" opacity="0.95"/>
    <path d="M160 74 C176 78 188 92 196 106" stroke="#00e5ff" stroke-width="3" fill="none" opacity="0.55"/>
  </g>
</svg>
